<?xml version="1.0" encoding="utf-8"?>
<!-- Generator: Adobe Illustrator 19.0.0, SVG Export Plug-In . SVG Version: 6.00 Build 0)  -->
<svg version="1.1" id="Layer_1" xmlns="http://www.w3.org/2000/svg" xmlns:xlink="http://www.w3.org/1999/xlink" x="0px" y="0px"
	 viewBox="0 0 200 200" style="enable-background:new 0 0 200 200;" xml:space="preserve">
<style type="text/css">
	.Drop_x0020_Shadow{fill:none;}
	.Outer_x0020_Glow_x0020_5_x0020_pt{fill:none;}
	.Blue_x0020_Neon{fill:none;stroke:#8AACDA;stroke-width:7;stroke-linecap:round;stroke-linejoin:round;}
	.Chrome_x0020_Highlight{fill:url(#SVGID_1_);stroke:#FFFFFF;stroke-width:0.3629;stroke-miterlimit:1;}
	.Jive_GS{fill:#FFDD00;}
	.Alyssa_GS{fill:#A6D0E4;}
</style>
<linearGradient id="SVGID_1_" gradientUnits="userSpaceOnUse" x1="0" y1="0" x2="4.489659e-11" y2="-1">
	<stop  offset="0" style="stop-color:#656565"/>
	<stop  offset="0.618" style="stop-color:#1B1B1B"/>
	<stop  offset="0.6292" style="stop-color:#545454"/>
	<stop  offset="0.9831" style="stop-color:#3E3E3E"/>
</linearGradient>
<g>
	<g>
		<path d="M100,199.8c-55.1,0-100-44.9-100-100s44.9-100,100-100s100,44.9,100,100S155.1,199.8,100,199.8z M100,9.5
			C50.2,9.5,9.7,50,9.7,99.8s40.5,90.3,90.3,90.3s90.3-40.5,90.3-90.3S149.8,9.5,100,9.5z"/>
	</g>
	<g>
		<path d="M55.1,143.4l25.2-60.8c0.5-1.2,1.4-2.1,2.6-2.6l60.9-24.9c0.7-0.3,1.3,0.4,1,1.1L119.7,117c-0.5,1.2-1.4,2.1-2.6,2.6
			l-60.9,24.9C55.5,144.7,54.8,144.1,55.1,143.4z M87.7,90l-15.3,37c-0.1,0.2,0.1,0.3,0.2,0.2l37-15.1c1.2-0.5,2.1-1.4,2.6-2.6
			l15.3-37c0.1-0.2-0.1-0.3-0.2-0.2l-37,15.1C89.1,87.9,88.2,88.9,87.7,90z"/>
	</g>
</g>
</svg>
