<?xml version="1.0" encoding="utf-8"?>
<!-- Generator: Adobe Illustrator 19.0.0, SVG Export Plug-In . SVG Version: 6.00 Build 0)  -->
<svg version="1.1" id="Layer_1" xmlns="http://www.w3.org/2000/svg" xmlns:xlink="http://www.w3.org/1999/xlink" x="0px" y="0px"
	 viewBox="0 2 638 638" style="enable-background:new 0 2 638 638;" xml:space="preserve">
<style type="text/css">
	.st0{fill:#F44336;stroke:#F44336;stroke-width:2.9999;stroke-miterlimit:22.926;}
	.st1{fill:#37474F;stroke:#000000;stroke-width:6.6201;stroke-miterlimit:22.926;}
	.st2{fill:none;stroke:#000000;stroke-width:6.6201;stroke-miterlimit:22.926;}
	.st3{fill:#FFFFFF;stroke:#000000;stroke-width:6.6201;stroke-miterlimit:22.926;}
	.st4{stroke:#000000;stroke-width:6.6201;stroke-miterlimit:22.926;}
	.st5{fill:#3F51B5;stroke:#000000;stroke-width:6.6201;stroke-miterlimit:22.926;}
</style>
<rect id="XMLID_1_" y="2" class="st0" width="638" height="638"/>
<g id="XMLID_2_" transform="translate(0,-952.36216)">
	<path id="XMLID_11_" class="st1" d="M238.6,1168.6h41.9c2.4,0,4.4,2,4.4,4.4v187.5c0,2.4-2,4.4-4.4,4.4h-41.9c-2.4,0-4.4-2-4.4-4.4
		V1173C234.2,1170.6,236.2,1168.6,238.6,1168.6z"/>
	<path id="XMLID_10_" class="st2" d="M249.2,1194h21c1.3,0,2.2,0.9,2.2,2.2v14.5c0,1.3-0.9,2.2-2.2,2.2h-21c-1.3,0-2.2-0.9-2.2-2.2
		v-14.5C247.1,1194.9,247.9,1194,249.2,1194z"/>
	<path id="XMLID_9_" class="st2" d="M249.2,1320.7h21c1.3,0,2.2,0.9,2.2,2.2v14.5c0,1.3-0.9,2.2-2.2,2.2h-21c-1.3,0-2.2-0.9-2.2-2.2
		v-14.5C247.1,1321.5,247.9,1320.7,249.2,1320.7z"/>
	<path id="XMLID_8_" class="st3" d="M302,1168.6h41.9c2.4,0,4.4,2,4.4,4.4v187.5c0,2.4-2,4.4-4.4,4.4H302c-2.4,0-4.4-2-4.4-4.4V1173
		C297.6,1170.6,299.6,1168.6,302,1168.6z"/>
	<path id="XMLID_7_" class="st4" d="M312.5,1194h21c1.3,0,2.2,0.9,2.2,2.2v14.5c0,1.3-0.9,2.2-2.2,2.2h-21c-1.3,0-2.2-0.9-2.2-2.2
		v-14.5C310.4,1194.9,311.2,1194,312.5,1194z"/>
	<path id="XMLID_6_" class="st5" d="M363.3,1197.7l35-6.2c2.4-0.4,4.6,1.1,5,3.6l28.3,159.8c0.4,2.4-1.1,4.6-3.6,5l-35,6.2
		c-2.4,0.4-4.6-1.1-5-3.6l-28.3-159.8C359.3,1200.4,360.9,1198.2,363.3,1197.7z"/>
	<path id="XMLID_5_" class="st2" d="M378.1,1221l14.3-2.4c1.1-0.3,2.4,0.7,2.6,1.7l1.3,8.2c0.3,1.1-0.7,2.4-1.7,2.6l-14.3,2.4
		c-1.1,0.3-2.4-0.7-2.6-1.7l-1.3-8.2C376.1,1222.3,376.8,1221.1,378.1,1221z"/>
	<path id="XMLID_4_" class="st2" d="M397.7,1333.3l14.3-2.4c1.1-0.3,2.4,0.7,2.6,1.7l1.3,8.2c0.3,1.1-0.7,2.4-1.7,2.6l-14.3,2.4
		c-1.1,0.3-2.4-0.7-2.6-1.7l-1.3-8.2C395.7,1334.6,396.6,1333.5,397.7,1333.3z"/>
	<path id="XMLID_3_" class="st4" d="M312.5,1320.7h21c1.3,0,2.2,0.9,2.2,2.2v14.5c0,1.3-0.9,2.2-2.2,2.2h-21c-1.3,0-2.2-0.9-2.2-2.2
		v-14.5C310.4,1321.5,311.2,1320.7,312.5,1320.7z"/>
</g>
</svg>
