<?xml version="1.0" encoding="utf-8"?>
<!-- Generator: Adobe Illustrator 19.0.0, SVG Export Plug-In . SVG Version: 6.00 Build 0)  -->
<svg version="1.1" id="Layer_1" xmlns="http://www.w3.org/2000/svg" xmlns:xlink="http://www.w3.org/1999/xlink" x="0px" y="0px"
	 viewBox="0 2 638 638" style="enable-background:new 0 2 638 638;" xml:space="preserve">
<style type="text/css">
	.st0{fill:#37474F;stroke:#37474F;stroke-width:3;stroke-miterlimit:22.926;}
	.st1{fill:#B8C6CD;}
</style>
<rect id="XMLID_1_" y="2" class="st0" width="638" height="638"/>
<g id="XMLID_13_">
	<path id="XMLID_27_" class="st1" d="M423.4,274.9c1.8,0,3.7,0.3,5.5,0.8c1.2,0.3,2.3,0.8,3.5,1.5c0.8,0.5,1.5,1,2.3,1.5
		c0.5,0.3,1,0.8,1.5,1.3c3.3,3.3,5.5,7.9,6.7,12.4c0.2,0.8,0.3,1.5,0.5,2.3c0.2,1.2,0.5,2.2,0.5,3.3c0.2,1.5,0.3,2.8,0.5,4.3
		c0.2,2,0.2,4,0,6.2l0,0v85v0.5c-0.2,0.5-0.2,0.7-0.3,1c-0.3,0.7-1,1.2-1.7,1.3c-0.5,0.2-0.7,0.2-1,0.2h-249c-0.5,0-0.7,0-1-0.2
		c-0.8-0.3-1.5-1-1.8-1.8c-0.2-0.5-0.2-0.7-0.2-1v-85c0-1.8,0-3.5,0.3-5.4c0.3-4,1.3-8.2,3-11.9c1.2-2.7,2.7-5,4.5-7.2
		c2.8-3.3,6.5-6,10.7-7.5c1.8-0.7,3.7-1.2,5.7-1.5h0.2h0.3C283.6,274.9,353.5,274.6,423.4,274.9z M213.7,281.3
		c-1.3,0.2-2.7,0.7-3.8,1.2c-3,1.2-5.7,3-7.7,5.4c-1.7,1.8-2.8,4-3.8,6.2c-1.5,3.3-2.2,7-2.3,10.7c-0.2,1.2-0.2,2.3-0.2,3.7v81.8
		h242.5v-82c0-0.5,0-0.8,0-1.3c0-0.5,0-1,0-1.3c0-1.5-0.2-3-0.2-4.5c-0.2-1.2-0.3-2.3-0.5-3.3c-0.2-0.8-0.3-1.7-0.5-2.7
		c-0.2-0.8-0.3-1.5-0.7-2.3c-0.2-0.5-0.3-1-0.5-1.5c-1.2-3-2.8-6-5.7-7.9c-0.3-0.3-0.8-0.5-1.2-0.7c-0.7-0.3-1.3-0.5-2-0.8
		c-1.2-0.3-2.3-0.5-3.7-0.5c-69.7-0.3-139.7,0-209.4,0C213.8,281.3,213.7,281.3,213.7,281.3z"/>
	<path id="XMLID_10_" class="st1" d="M441.8,314.4c0.2,0,0.3,0,0.5,0.2c0.5,0.2,1,0.5,1.3,1c0.2,0.3,0.5,0.7,0.5,1
		c0.3,1,0.2,2.2-0.5,3.2c-0.2,0.3-0.5,0.5-0.8,0.7c-0.3,0.2-0.7,0.3-1,0.3c-0.2,0-0.3,0-0.5,0H192.4c-0.2,0-0.3,0-0.5,0
		c-0.7-0.2-1.3-0.5-1.8-1c-0.2-0.3-0.5-0.7-0.5-1c-0.3-1-0.2-2.2,0.5-3.2c0.2-0.3,0.5-0.5,0.8-0.7s0.7-0.3,1-0.3c0.2,0,0.3,0,0.5,0
		h248.9C441.4,314.4,441.6,314.4,441.8,314.4z"/>
	<path id="XMLID_23_" class="st1" d="M362.8,232.5c1,0,2.2,0.2,3.2,0.2c2.3,0.3,4.5,0.8,6.5,1.8c1.7,0.8,3.2,1.8,4.7,3.2
		c3.2,3,5,7,6,11.2c0.3,1.5,0.5,3.2,0.5,4.9l0,0V278v0.3c0,0.3,0,0.5-0.2,0.7c-0.3,0.8-1,1.5-1.8,1.8c-0.2,0.2-0.5,0.2-0.7,0.2
		c-0.2,0-0.3,0-0.3,0h-18.2c-0.2,0-0.3,0-0.3,0c-0.3,0-0.5-0.2-0.7-0.2c-0.8-0.3-1.5-1-1.8-1.8c-0.2-0.2-0.2-0.5-0.2-0.7
		c0-0.2,0-0.3,0-0.3c0-5.2,0.2-10.4,0-15.4c0-0.8-0.2-1.5-0.5-2.2c-0.7-1.5-2.2-2.3-3.7-3c-0.3-0.2-0.5-0.2-0.8-0.3
		c-0.3-0.2-0.8-0.2-1.2-0.2c-24.3-2.7-48.7-0.7-72.9,0c-0.8,0-1.7,0.2-2.3,0.5c-0.3,0.2-0.5,0.3-0.8,0.5c-1.3,1-2,2.5-2.3,4
		c0,0.3-0.2,0.7-0.2,1l0,0V278v0.3c0,0.2,0,0.3,0,0.3c0,0.2-0.2,0.5-0.3,0.7c-0.3,0.8-1.2,1.3-2,1.7c-0.3,0-0.5,0-0.8,0.2h-18.4
		c-0.2,0-0.3,0-0.3,0c-0.3,0-0.5-0.2-0.7-0.2c-0.8-0.3-1.5-1-1.8-1.8c-0.2-0.2-0.2-0.5-0.2-0.7s0-0.3,0-0.3c0-8.2,0-16.6,0-24.8
		c0-1,0.2-2.2,0.2-3.2c0.3-2.2,0.8-4.2,1.7-6.2c0.7-1.7,1.7-3,2.8-4.3c3-3.3,7.2-5.5,11.5-6.5c1.5-0.3,3.2-0.7,4.9-0.7
		C301.8,232,332.4,232.3,362.8,232.5z M271.4,238.8c-1.3,0-2.7,0.3-3.8,0.5c-2.8,0.7-5.7,2-7.7,4.2c-0.3,0.3-0.7,0.8-1,1.2
		c-0.5,0.7-1,1.5-1.3,2.2c-0.7,1.5-1,3.2-1.2,4.7c0,0.7-0.2,1.3-0.2,2.2v21.1H268v-12c0-1,0.2-2,0.5-3c0.5-2,1.5-3.8,2.8-5.4
		c1-1.2,2.3-2.2,3.8-2.8c1.5-0.7,3.2-1,4.9-1c24.4-0.2,48.7,0,73.1,0c1,0,2.2,0.3,3.2,0.7c1.5,0.5,3,1.2,4.2,2c1.5,1,2.7,2.3,3.5,4
		c0.7,1.2,1,2.3,1.2,3.5c0.2,0.7,0.2,1.3,0.2,1.8v0.2v12h11.9c0-7.2,0.2-14.4,0-21.4c0-0.3,0-0.5,0-0.8c0-0.5-0.2-1-0.2-1.5
		c-0.5-3.2-1.8-6.5-4.3-8.9c-0.5-0.5-1-0.8-1.5-1.2c-0.8-0.7-1.8-1-2.8-1.3c-1.8-0.7-3.8-0.8-5.7-0.8
		C332.2,238.7,301.8,238.3,271.4,238.8z"/>
	<path id="XMLID_20_" class="st1" d="M332.2,305.4c0.3,0,0.7,0.2,1,0.2c0.8,0.3,1.5,1,1.8,1.8c0.2,0.3,0.2,0.7,0.2,1
		c0.2,6.2,0,12.2,0,18.4c0,0.3,0,0.7-0.2,1c-0.3,0.8-0.8,1.5-1.7,2c-0.3,0.2-0.7,0.2-1.2,0.3c-10.2,0.3-20.4,0-30.6,0
		c-0.3,0-0.7,0-1-0.2c-0.8-0.3-1.5-0.8-2-1.7c-0.2-0.3-0.2-0.7-0.3-1.2c-0.2-6.2,0-12.2,0-18.4c0-0.3,0-0.7,0.2-1
		c0.3-0.8,0.8-1.5,1.7-2c0.3-0.2,0.7-0.2,1.2-0.3C311.8,305.1,322,305.1,332.2,305.4z M304.8,311.6v11.9h24.1v-11.9
		C320.9,311.6,312.8,311.6,304.8,311.6z"/>
	<path id="XMLID_17_" class="st1" d="M253.3,299.2c0.3,0,0.7,0.2,1,0.2c0.8,0.3,1.5,1,1.8,1.8c0.2,0.3,0.2,0.7,0.2,1
		c0.3,10.2,0,20.4,0,30.6c0,0.3,0,0.7-0.2,1c-0.3,0.8-0.8,1.5-1.7,2c-0.3,0.2-0.7,0.2-1.2,0.3c-7.2,0.2-14.2,0-21.4,0
		c-0.3,0-0.7,0-1-0.2c-0.8-0.3-1.5-0.8-2-1.7c-0.2-0.3-0.2-0.7-0.3-1.2c-0.3-10.2,0-20.4,0-30.6c0-0.3,0-0.7,0.2-1
		c0.3-0.8,0.8-1.5,1.7-2c0.3-0.2,0.7-0.2,1.2-0.3C238.9,299,246.1,299,253.3,299.2z M235.1,305.6v24.1H250v-24.1
		C244.9,305.6,240.1,305.6,235.1,305.6z"/>
	<path id="XMLID_14_" class="st1" d="M402,299.2c0.3,0,0.7,0.2,1,0.2c0.8,0.3,1.5,1,1.8,1.8c0.2,0.3,0.2,0.7,0.2,1
		c0.3,10.2,0,20.4,0,30.6c0,0.3,0,0.8-0.2,1.2c-0.3,0.8-1,1.5-1.8,1.8c-0.3,0.2-0.7,0.2-1,0.2c-7.2,0.2-14.2,0-21.4,0
		c-0.3,0-0.7,0-1-0.2c-0.8-0.3-1.5-0.8-2-1.7c-0.2-0.3-0.2-0.7-0.3-1.2c-0.3-10.2,0-20.4,0-30.6c0-0.3,0-0.7,0.2-1
		c0.3-0.8,0.8-1.5,1.7-2c0.3-0.2,0.7-0.2,1.2-0.3C387.6,299,394.8,299,402,299.2z M383.7,305.6v24.1h14.9v-2.8v-21.1
		C393.8,305.6,388.8,305.6,383.7,305.6z"/>
</g>
</svg>
